<svg xmlns="http://www.w3.org/2000/svg" width="28.555" height="28.506" viewBox="0 0 28.555 28.506"><defs><style>.a{fill:#fff;}</style></defs><path class="a" d="M496.4,844.589a3.431,3.431,0,1,0,3.43,3.429,3.431,3.431,0,0,0-3.43-3.429Zm0,0" transform="translate(-492.969 -844.589)"/><rect class="a" width="5.918" height="19.041" transform="translate(0.472 9.464)"/><path class="a" d="M530.66,868.03a6.222,6.222,0,0,0-5.6,3.076h-.078v-2.6H519.3v19.041h5.914v-9.419c0-2.484.472-4.889,3.551-4.889,3.036,0,3.076,2.841,3.076,5.048v9.26h5.914V877.1c0-5.127-1.107-9.071-7.1-9.071Zm0,0" transform="translate(-509.204 -859.039)"/></svg>