<svg xmlns="http://www.w3.org/2000/svg" width="208.695" height="118.156" viewBox="0 0 208.695 118.156"><defs><style>.a{fill:#a77f3e;}</style></defs><g transform="translate(-58.389 -205.8)"><path class="a" d="M422.6,218.911l-6.873,6.179c-.676-.754-1.571-1.741-2.455-2.738a26.1,26.1,0,0,0-10.543-7.284,29.038,29.038,0,0,0-11.882-1.8,26.989,26.989,0,0,0-16.119,6.233,36.378,36.378,0,0,0-10.96,16.382c-2.444,6.889-2.859,13.981-2.449,21.176a45.31,45.31,0,0,0,3.882,16.054,33.565,33.565,0,0,0,7.491,10.882,27.663,27.663,0,0,0,15.548,7.625,29.2,29.2,0,0,0,15.22-1.784,23.285,23.285,0,0,0,7.67-4.856c1.214-1.19,2.37-2.44,3.52-3.693a1.5,1.5,0,0,0,.387-.915q.025-12,0-24a1.7,1.7,0,0,0-.09-.317h-9.918v-7h22.042v1.258c0,9.57-.06,19.141.051,28.71a6.348,6.348,0,0,1-1.776,4.63,49.817,49.817,0,0,1-11.741,9.737,38.843,38.843,0,0,1-13.042,4.857,48.107,48.107,0,0,1-12.2.483,37.567,37.567,0,0,1-13.253-3.516,45.834,45.834,0,0,1-10.882-7.149,47.1,47.1,0,0,1-12.889-18.319,38.721,38.721,0,0,1-2.951-14.453c.007-3.044-.023-6.106.282-9.128a41.323,41.323,0,0,1,4.125-14.038,48.579,48.579,0,0,1,10.952-14.658,44.912,44.912,0,0,1,13.1-8.324,42.063,42.063,0,0,1,18.772-2.8,38.206,38.206,0,0,1,15.921,4.461,47.2,47.2,0,0,1,10.118,7.1C421.921,218.143,422.144,218.417,422.6,218.911Z" transform="translate(-160.424 -0.251)"/><path class="a" d="M153.9,205.8c0,4.516.036,8.766-.045,13.012a2.873,2.873,0,0,1-.977,1.619c-2.57,2.567-5.2,5.077-7.783,7.628q-8.374,8.264-16.727,16.549-6.194,6.123-12.4,12.233-6.163,6.084-12.322,12.171T91.3,281.185q-6.319,6.23-12.646,12.452c-1.244,1.221-2.516,2.416-3.8,3.6a1.533,1.533,0,0,1-.9.445c-4.285.026-8.57.013-12.855.005-.058,0-.116-.062-.43-.241.558-.481,1.086-.884,1.553-1.348,2.484-2.462,4.943-4.948,7.428-7.409q6-5.943,12.023-11.863,5.9-5.815,11.793-11.629,6.015-5.934,12.029-11.87,5.672-5.592,11.348-11.181,6.208-6.116,12.418-12.231,5.862-5.777,11.722-11.557,5.934-5.852,11.871-11.7C153.131,206.391,153.442,206.173,153.9,205.8Z" transform="translate(-1.266 0)"/><path class="a" d="M296.75,298.17V206.583h10.8V298.17Z" transform="translate(-131.857 -0.433)"/><path class="a" d="M219.639,272.376v62.075H209.22V296.345c-.564.525-.99.9-1.393,1.3q-6.619,6.539-13.234,13.082c-2.513,2.474-5.059,4.915-7.575,7.386-.372.365-.662.633-1.144.151-2.243-2.241-4.5-4.467-6.646-6.592,1.551-1.63,2.985-3.2,4.487-4.7,2.57-2.568,5.175-5.1,7.781-7.635q5.057-4.914,10.138-9.8,4.8-4.642,9.6-9.286,3.919-3.772,7.87-7.511A4.689,4.689,0,0,1,219.639,272.376Z" transform="translate(-66.845 -36.829)"/><path class="a" d="M103.27,247.339l-6.587,6.392L70.7,229.113v38.164H60.5V206.161c.934.832,1.815,1.561,2.632,2.355,2.991,2.9,5.955,5.837,8.941,8.746q5.01,4.881,10.042,9.741,5.066,4.9,10.145,9.79,5.029,4.861,10.051,9.729C102.59,246.793,102.9,247.028,103.27,247.339Z" transform="translate(-1.168 -0.2)"/><path class="a" d="M151.251,458.339h-1.4v-7.116l-3.168,3.982-3.255-3.969v7.108h-1.347v-9.282a1.736,1.736,0,0,1,2.21.815,35.7,35.7,0,0,0,2.376,3.112c.785-1.028,1.54-1.988,2.264-2.972.831-1.13.819-1.138,2.32-.96Z" transform="translate(-46.297 -134.51)"/><path class="a" d="M311.7,449.058v9.274h-1.2v-6.9l-.223-.092-3.055,3.869-3.178-3.924v7.028H302.61v-9.271a1.807,1.807,0,0,1,2.207.771c.71,1.076,1.532,2.078,2.377,3.207a38.3,38.3,0,0,0,2.329-3.122A1.692,1.692,0,0,1,311.7,449.058Z" transform="translate(-135.099 -134.504)"/><path class="a" d="M360.614,458.292a1.681,1.681,0,0,1-2.092-.792c-1.421-2.09-3-4.076-4.628-6.261v7.056h-1.46v-9.231a1.777,1.777,0,0,1,2.242.857c1.4,1.991,2.874,3.926,4.5,6.126v-7.008h1.439Z" transform="translate(-162.661 -134.5)"/><path class="a" d="M415.641,451.672a6.506,6.506,0,0,1-1.53-.787,3.54,3.54,0,0,0-4.007-.7,3.318,3.318,0,0,0-1.75,3.351c.177,2.741,2.716,4.171,4.98,2.81a2.5,2.5,0,0,0,1.279-2.153h-3.283v-1.249h4.562v5.164l-1.107.05c-.063-.341-.118-.639-.186-1.015-2.163,1.367-4.307,1.589-6.331-.2a4.423,4.423,0,0,1-1.322-3.152c-.2-2.634,1.326-4.843,3.675-5.2C412.9,448.253,415.3,449.169,415.641,451.672Z" transform="translate(-192.805 -134.272)"/><path class="a" d="M441.622,458.324a1.68,1.68,0,0,1-2.286-.992,13.748,13.748,0,0,0-1.3-2.06,1.13,1.13,0,0,0-.737-.42c-.74-.056-1.487-.02-2.33-.02v3.52H433.5V449.06c1.942,0,3.892-.089,5.828.036a2.544,2.544,0,0,1,1.982,2.353c.131,1.663-.317,2.414-1.992,3.208Zm-6.635-4.7c1.321-.087,2.589-.09,3.828-.281a1.218,1.218,0,0,0,1.114-1.521,2.4,2.4,0,0,0-1.417-1.434,18.334,18.334,0,0,0-3.525-.067Z" transform="translate(-207.506 -134.55)"/><path class="a" d="M62.882,452.992c.806-1.06,1.64-2.023,2.312-3.087a1.679,1.679,0,0,1,2.114-.85v9.285l-1.168.052v-6.86l-.226-.1L62.888,455.2l-3.242-4.04v7.154H58.389v-9.251a1.732,1.732,0,0,1,2.182.851C61.274,450.976,62.1,451.958,62.882,452.992Z" transform="translate(0 -134.508)"/><path class="a" d="M191.471,458.349h-1.3v-9.271a1.737,1.737,0,0,1,2.188.841c1.319,2,2.825,3.875,4.456,6.073v-6.945h1.346v9.244a1.47,1.47,0,0,1-1.9-.667c-1.488-2.15-3.08-4.227-4.79-6.548Z" transform="translate(-72.899 -134.521)"/><path class="a" d="M460.755,458.164a4.81,4.81,0,0,1,.011-9.621,4.81,4.81,0,1,1-.011,9.621Zm-.006-1.311c2.2-.007,3.308-1.453,3.511-3.5a3.443,3.443,0,0,0-3.393-3.5,3.663,3.663,0,0,0-3.6,3.443A3.556,3.556,0,0,0,460.749,456.852Z" transform="translate(-219.931 -134.28)"/><path class="a" d="M258.4,455.042h1.273a3.109,3.109,0,0,0,3.964,1.7c.509-.18,1.188-.8,1.193-1.229s-.676-1.01-1.185-1.232a17.787,17.787,0,0,0-2.74-.758c-1.82-.464-2.521-1.6-2.026-3.283a2.17,2.17,0,0,1,1.861-1.512c1.554-.316,3.131-.464,4.418.681a7.6,7.6,0,0,1,1.126,1.82c-1.04.424-1.481.166-1.889-.546-.591-1.032-3.232-1.191-4.036-.318a1.041,1.041,0,0,0,.59,1.744c.9.3,1.84.506,2.766.737,1.8.449,2.656,1.3,2.616,2.608a2.829,2.829,0,0,1-2.464,2.65,10.34,10.34,0,0,1-2.77-.043A3.1,3.1,0,0,1,258.4,455.042Z" transform="translate(-110.641 -134.256)"/><path class="a" d="M337.447,449.177v1.2h-5.43V453.1h4.962v1.317h-4.951v2.76h5.415v1.262h-6.857v-9.257Z" transform="translate(-150.574 -134.632)"/><path class="a" d="M244.657,453.105l-.06,1.327h-4.884v2.728h5.512v1.278h-6.938v-9.3h6.947v1.208h-5.526v2.763Z" transform="translate(-99.516 -134.608)"/><path class="a" d="M509.908,455.193v3.221h-1.336v-9.236c1.909,0,3.821-.121,5.707.045,1.147.1,1.9,1.584,1.833,3a2.766,2.766,0,0,1-2.323,2.849,19.7,19.7,0,0,1-2.553.122C510.821,455.2,510.4,455.193,509.908,455.193Zm.084-4.822v3.5c.732,0,1.4.006,2.068,0a8.784,8.784,0,0,0,1.169-.056c1.048-.156,1.518-.865,1.409-2.109a1.355,1.355,0,0,0-1.576-1.338C512.069,450.379,511.076,450.371,509.992,450.371Z" transform="translate(-249.033 -134.608)"/><path class="a" d="M83.549,458.229c.606-1.467,1.2-2.927,1.811-4.382.573-1.369,1.175-2.725,1.733-4.1a1.194,1.194,0,0,1,1.29-.827c.7,0,.84.343,1.069.9,1.159,2.8,2.39,5.58,3.6,8.376-1.395.35-1.442.329-1.944-.871a4.529,4.529,0,0,0-.453-1.072,1.656,1.656,0,0,0-.915-.609,11.241,11.241,0,0,0-1.817-.027c-1.823,0-1.915-.03-2.472,1.7C85.116,458.354,84.606,458.575,83.549,458.229Zm4.723-7.665-1.525,3.777H89.86Z" transform="translate(-13.918 -134.491)"/><path class="a" d="M106.747,458.22l3.649-4.8-3.34-4.36c1.026-.187,1.81-.256,2.388.712.5.837,1.149,1.586,1.816,2.487a24.292,24.292,0,0,0,1.65-2.182,2,2,0,0,1,2.576-1.013c-.977,1.286-1.92,2.555-2.9,3.8a.709.709,0,0,0,.007,1.084c1.1,1.362,2.12,2.789,3.24,4.285a1.757,1.757,0,0,1-2.274-.637c-.689-1.022-1.473-1.981-2.258-3.023-.74.971-1.54,1.878-2.17,2.89A1.787,1.787,0,0,1,106.747,458.22Z" transform="translate(-26.751 -134.498)"/><path class="a" d="M489.882,449.108h1.579c-.105,2.239-.1,4.475-.356,6.678a3.466,3.466,0,0,1-3.3,2.691c-2.114.105-3.578-.635-4.154-2.22a7.144,7.144,0,0,1-.408-2.155c-.056-1.568-.011-3.14,0-4.71a1.22,1.22,0,0,1,.081-.266h1.2c0,1.581-.048,3.145.017,4.7a3.17,3.17,0,0,0,1.224,2.873,2.5,2.5,0,0,0,2.607.237,2.414,2.414,0,0,0,1.525-2.346C489.86,452.782,489.882,450.97,489.882,449.108Z" transform="translate(-235.005 -134.593)"/><path class="a" d="M213.244,449.066c1.137-.319,1.615.047,1.96,1.063.689,2.026,1.567,3.988,2.483,6.268.5-1.161.9-2.064,1.273-2.981a32.4,32.4,0,0,0,1.277-3.357c.287-1.026.841-1.305,1.9-.982-.659,1.682-1.323,3.392-2,5.1-.454,1.147-.883,2.306-1.415,3.417a1.81,1.81,0,0,1-.962.774c-.59.218-.87-.212-1.072-.721C215.557,454.8,214.407,451.954,213.244,449.066Z" transform="translate(-85.663 -134.506)"/><path class="a" d="M383.756,450.383h-3.21v8.068h-1.289v-8.036h-3.281v-1.254h7.78Z" transform="translate(-175.683 -134.623)"/><path class="a" d="M283.209,450.377h-3.188v-1.248h7.623v1.225h-3.156v8.053h-1.279Z" transform="translate(-122.603 -134.605)"/><path class="a" d="M132.989,458.445h-1.157v-9.3h1.157Z" transform="translate(-40.627 -134.615)"/><path class="a" d="M180.8,458.466h-1.335v-9.279H180.8Z" transform="translate(-66.978 -134.637)"/></g></svg>